<svg xmlns="http://www.w3.org/2000/svg" width="1800" height="1479" viewBox="0 0 1800 1479" role="img" aria-labelledby="title desc">
<title id="title">05 论文创作与成果传播</title>
<desc id="desc">22 skills in stage 5 of the LL-AcademicSkillsHub research workflow.</desc>

<defs>
  <linearGradient id="page" x1="0" y1="0" x2="1" y2="1">
    <stop offset="0" stop-color="#F8FAFF"/>
    <stop offset="1" stop-color="#F4F7FB"/>
  </linearGradient>
  <pattern id="grid" width="48" height="48" patternUnits="userSpaceOnUse">
    <path d="M48 0H0V48" fill="none" stroke="#0F172A" stroke-opacity=".035"/>
  </pattern>
  <filter id="shadow" x="-20%" y="-20%" width="140%" height="150%">
    <feDropShadow dx="0" dy="8" stdDeviation="10" flood-color="#0F172A" flood-opacity=".10"/>
  </filter>
  <marker id="arrow" markerWidth="12" markerHeight="12" refX="10" refY="6" orient="auto">
    <path d="M0 0L12 6L0 12Z" fill="#64748B"/>
  </marker>
  <marker id="feedback" markerWidth="12" markerHeight="12" refX="10" refY="6" orient="auto">
    <path d="M0 0L12 6L0 12Z" fill="#0F9F8F"/>
  </marker>
  <style>
    text { font-family: Inter, "Microsoft YaHei", "PingFang SC", "Noto Sans CJK SC", Arial, sans-serif; }
    .eyebrow { font-size: 17px; font-weight: 800; letter-spacing: 3px; fill: #64748B; }
    .page-title { font-size: 44px; font-weight: 900; fill: #0F172A; }
    .page-subtitle { font-size: 20px; fill: #475569; }
    .stage-title { font-size: 24px; font-weight: 900; fill: #0F172A; }
    .stage-goal { font-size: 16px; fill: #475569; }
    .count { font-size: 15px; font-weight: 800; }
    .category-title { font-size: 23px; font-weight: 900; fill: #0F172A; }
    .category-purpose { font-size: 16px; fill: #64748B; }
    .skill-title { font-size: 17px; font-weight: 700; fill: #172033; }
    .skill-id { font-size: 11px; font-weight: 600; fill: #64748B; letter-spacing: .25px; }
    .label { font-size: 13px; font-weight: 900; letter-spacing: 1px; fill: #64748B; }
    .flow-value { font-size: 18px; font-weight: 800; fill: #172033; }
    .footer { font-size: 15px; fill: #64748B; }
  </style>
</defs>

<rect width="1800" height="1479" fill="url(#page)"/>
<rect width="1800" height="1479" fill="url(#grid)"/>
<circle cx="1650" cy="70" r="290" fill="#2563EB" opacity=".035"/>
<circle cx="80" cy="900" r="240" fill="#0F9F8F" opacity=".035"/>
<rect x="0" y="0" width="18" height="1479" fill="#DB2777"/>
<text x="70" y="66" class="eyebrow">LL-ACADEMICSKILLSHUB · SKILL ARCHITECTURE</text>
<rect x="70" y="94" width="94" height="54" rx="19" fill="#FDEAF3"/>
<text x="117" y="130" text-anchor="middle" font-size="24" font-weight="900" fill="#DB2777">05</text>
<text x="188" y="134" class="page-title">论文创作与成果传播</text>
<text x="70" y="184" class="page-subtitle">把证据、方法和结果组织为论文、图表、演示与可交付学术成果</text>
<rect x="1460" y="82" width="270" height="82" rx="24" fill="#DB2777"/>
<text x="1595" y="119" text-anchor="middle" font-size="32" font-weight="900" fill="#FFFFFF">22</text>
<text x="1595" y="146" text-anchor="middle" font-size="13" font-weight="900" fill="#FFFFFF" opacity=".9">项技能</text>
<rect x="70" y="230" width="376" height="108" rx="22" fill="#FFFFFF" stroke="#D9E2EE" filter="url(#shadow)"/>
<rect x="70" y="230" width="8" height="108" rx="4" fill="#DB2777"/>
<text x="98" y="264" class="label">输入</text>
<rect x="96" y="279" width="326" height="42" rx="13" fill="#FDEAF3"/>
<text x="113" y="307" class="flow-value">证据链、分析结果与素材</text>
<path d="M456 284 H488" fill="none" stroke="#64748B" stroke-width="3" marker-end="url(#arrow)"/>
<rect x="500" y="230" width="376" height="108" rx="22" fill="#FFFFFF" stroke="#D9E2EE" filter="url(#shadow)"/>
<rect x="500" y="230" width="8" height="108" rx="4" fill="#DB2777"/>
<text x="528" y="264" class="label">阶段任务</text>
<rect x="526" y="279" width="326" height="42" rx="13" fill="#FDEAF3"/>
<text x="543" y="297" font-size="15" font-weight="800" fill="#172033">把证据、方法和结果组织为论文、图表</text>
<text x="543" y="315" font-size="15" font-weight="800" fill="#172033">、演示与可交付学术成果</text>
<path d="M886 284 H918" fill="none" stroke="#64748B" stroke-width="3" marker-end="url(#arrow)"/>
<rect x="930" y="230" width="376" height="108" rx="22" fill="#FFFFFF" stroke="#D9E2EE" filter="url(#shadow)"/>
<rect x="930" y="230" width="8" height="108" rx="4" fill="#DB2777"/>
<text x="958" y="264" class="label">输出</text>
<rect x="956" y="279" width="326" height="42" rx="13" fill="#FDEAF3"/>
<text x="973" y="307" class="flow-value">论文、图表、演示与审稿回复</text>
<path d="M1316 284 H1348" fill="none" stroke="#64748B" stroke-width="3" marker-end="url(#arrow)"/>
<rect x="1360" y="230" width="376" height="108" rx="22" fill="#FFFFFF" stroke="#D9E2EE" filter="url(#shadow)"/>
<rect x="1360" y="230" width="8" height="108" rx="4" fill="#DB2777"/>
<text x="1388" y="264" class="label">流向</text>
<rect x="1386" y="279" width="326" height="42" rx="13" fill="#FDEAF3"/>
<text x="1403" y="307" class="flow-value">审稿反馈回流研究发现</text>
<text x="70" y="405" class="label">阶段能力清单</text>
<text x="70" y="444" font-size="28" font-weight="900" fill="#0F172A">每项技能都落在明确任务节点中</text>
<rect x="70" y="480" width="1660" height="298" rx="26" fill="#FFFFFF" stroke="#D9E2EE" filter="url(#shadow)"/>
<rect x="70" y="480" width="12" height="298" rx="6" fill="#DB2777"/>
<rect x="104" y="505" width="62" height="38" rx="15" fill="#FDEAF3"/>
<text x="135" y="531" text-anchor="middle" class="count" fill="#DB2777">15</text>
<text x="188" y="533" class="category-title">文档处理与数据工具</text>
<text x="1692" y="532" text-anchor="end" class="count" fill="#DB2777">7 SKILLS</text>
<text x="105" y="566" class="category-purpose">PDF、文档、表格、演示与结构化转换</text>
<rect x="105" y="584" width="515" height="48" rx="14" fill="#FDEAF3" stroke="#DB2777" stroke-opacity=".16"/>
<circle cx="125" cy="602" r="5" fill="#DB2777"/>
<text x="139" y="606" class="skill-title"><title>Denario</title>Denario</text>
<text x="139" y="624" class="skill-id">denario</text>
<rect x="105" y="646" width="515" height="48" rx="14" fill="#FDEAF3" stroke="#DB2777" stroke-opacity=".16"/>
<circle cx="125" cy="664" r="5" fill="#DB2777"/>
<text x="139" y="668" class="skill-title"><title>Docx</title>Docx</text>
<text x="139" y="686" class="skill-id">docx</text>
<rect x="105" y="708" width="515" height="48" rx="14" fill="#FDEAF3" stroke="#DB2777" stroke-opacity=".16"/>
<circle cx="125" cy="726" r="5" fill="#DB2777"/>
<text x="139" y="730" class="skill-title"><title>Markitdown</title>Markitdown</text>
<text x="139" y="748" class="skill-id">markitdown</text>
<rect x="644" y="584" width="515" height="48" rx="14" fill="#FDEAF3" stroke="#DB2777" stroke-opacity=".16"/>
<circle cx="664" cy="602" r="5" fill="#DB2777"/>
<text x="678" y="606" class="skill-title"><title>Open Notebook</title>Open Notebook</text>
<text x="678" y="624" class="skill-id">open-notebook</text>
<rect x="644" y="646" width="515" height="48" rx="14" fill="#FDEAF3" stroke="#DB2777" stroke-opacity=".16"/>
<circle cx="664" cy="664" r="5" fill="#DB2777"/>
<text x="678" y="668" class="skill-title"><title>Pdf</title>Pdf</text>
<text x="678" y="686" class="skill-id">pdf</text>
<rect x="644" y="708" width="515" height="48" rx="14" fill="#FDEAF3" stroke="#DB2777" stroke-opacity=".16"/>
<circle cx="664" cy="726" r="5" fill="#DB2777"/>
<text x="678" y="730" class="skill-title"><title>Pptx</title>Pptx</text>
<text x="678" y="748" class="skill-id">pptx</text>
<rect x="1183" y="584" width="515" height="48" rx="14" fill="#FDEAF3" stroke="#DB2777" stroke-opacity=".16"/>
<circle cx="1203" cy="602" r="5" fill="#DB2777"/>
<text x="1217" y="606" class="skill-title"><title>Xlsx</title>Xlsx</text>
<text x="1217" y="624" class="skill-id">xlsx</text>
<rect x="70" y="804" width="1660" height="236" rx="26" fill="#FFFFFF" stroke="#D9E2EE" filter="url(#shadow)"/>
<rect x="70" y="804" width="12" height="236" rx="6" fill="#DB2777"/>
<rect x="104" y="829" width="62" height="38" rx="15" fill="#FDEAF3"/>
<text x="135" y="855" text-anchor="middle" class="count" fill="#DB2777">03</text>
<text x="188" y="857" class="category-title">科学写作与学术交流</text>
<text x="1692" y="856" text-anchor="end" class="count" fill="#DB2777">6 SKILLS</text>
<text x="105" y="890" class="category-purpose">论文、基金、审稿回复与规范化学术表达</text>
<rect x="105" y="908" width="515" height="48" rx="14" fill="#FDEAF3" stroke="#DB2777" stroke-opacity=".16"/>
<circle cx="125" cy="926" r="5" fill="#DB2777"/>
<text x="139" y="930" class="skill-title"><title>Medical Imaging Review</title>Medical Imaging Review</text>
<text x="139" y="948" class="skill-id">medical-imaging-review</text>
<rect x="105" y="970" width="515" height="48" rx="14" fill="#FDEAF3" stroke="#DB2777" stroke-opacity=".16"/>
<circle cx="125" cy="988" r="5" fill="#DB2777"/>
<text x="139" y="992" class="skill-title"><title>Paper 2 Web</title>Paper 2 Web</text>
<text x="139" y="1010" class="skill-id">paper-2-web</text>
<rect x="644" y="908" width="515" height="48" rx="14" fill="#FDEAF3" stroke="#DB2777" stroke-opacity=".16"/>
<circle cx="664" cy="926" r="5" fill="#DB2777"/>
<text x="678" y="930" class="skill-title"><title>Peer Review</title>Peer Review</text>
<text x="678" y="948" class="skill-id">peer-review</text>
<rect x="644" y="970" width="515" height="48" rx="14" fill="#FDEAF3" stroke="#DB2777" stroke-opacity=".16"/>
<circle cx="664" cy="988" r="5" fill="#DB2777"/>
<text x="678" y="992" class="skill-title"><title>Research Proposal</title>Research Proposal</text>
<text x="678" y="1010" class="skill-id">research-proposal</text>
<rect x="1183" y="908" width="515" height="48" rx="14" fill="#FDEAF3" stroke="#DB2777" stroke-opacity=".16"/>
<circle cx="1203" cy="926" r="5" fill="#DB2777"/>
<text x="1217" y="930" class="skill-title"><title>Scientific Writing</title>Scientific Writing</text>
<text x="1217" y="948" class="skill-id">scientific-writing</text>
<rect x="1183" y="970" width="515" height="48" rx="14" fill="#FDEAF3" stroke="#DB2777" stroke-opacity=".16"/>
<circle cx="1203" cy="988" r="5" fill="#DB2777"/>
<text x="1217" y="992" class="skill-title"><title>Venue Templates</title>Venue Templates</text>
<text x="1217" y="1010" class="skill-id">venue-templates</text>
<rect x="70" y="1066" width="1660" height="298" rx="26" fill="#FFFFFF" stroke="#D9E2EE" filter="url(#shadow)"/>
<rect x="70" y="1066" width="12" height="298" rx="6" fill="#DB2777"/>
<rect x="104" y="1091" width="62" height="38" rx="15" fill="#FDEAF3"/>
<text x="135" y="1117" text-anchor="middle" class="count" fill="#DB2777">04</text>
<text x="188" y="1119" class="category-title">学术演示与可视化</text>
<text x="1692" y="1118" text-anchor="end" class="count" fill="#DB2777">9 SKILLS</text>
<text x="105" y="1152" class="category-purpose">科研图表、海报、幻灯片与出版级视觉表达</text>
<rect x="105" y="1170" width="515" height="48" rx="14" fill="#FDEAF3" stroke="#DB2777" stroke-opacity=".16"/>
<circle cx="125" cy="1188" r="5" fill="#DB2777"/>
<text x="139" y="1192" class="skill-title"><title>Generate Image</title>Generate Image</text>
<text x="139" y="1210" class="skill-id">generate-image</text>
<rect x="105" y="1232" width="515" height="48" rx="14" fill="#FDEAF3" stroke="#DB2777" stroke-opacity=".16"/>
<circle cx="125" cy="1250" r="5" fill="#DB2777"/>
<text x="139" y="1254" class="skill-title"><title>Infographics</title>Infographics</text>
<text x="139" y="1272" class="skill-id">infographics</text>
<rect x="105" y="1294" width="515" height="48" rx="14" fill="#FDEAF3" stroke="#DB2777" stroke-opacity=".16"/>
<circle cx="125" cy="1312" r="5" fill="#DB2777"/>
<text x="139" y="1316" class="skill-title"><title>Latex Posters</title>Latex Posters</text>
<text x="139" y="1334" class="skill-id">latex-posters</text>
<rect x="644" y="1170" width="515" height="48" rx="14" fill="#FDEAF3" stroke="#DB2777" stroke-opacity=".16"/>
<circle cx="664" cy="1188" r="5" fill="#DB2777"/>
<text x="678" y="1192" class="skill-title"><title>Markdown Mermaid Writing</title>Markdown Mermaid Writing</text>
<text x="678" y="1210" class="skill-id">markdown-mermaid-writing</text>
<rect x="644" y="1232" width="515" height="48" rx="14" fill="#FDEAF3" stroke="#DB2777" stroke-opacity=".16"/>
<circle cx="664" cy="1250" r="5" fill="#DB2777"/>
<text x="678" y="1254" class="skill-title"><title>Paper Slide Deck</title>Paper Slide Deck</text>
<text x="678" y="1272" class="skill-id">paper-slide-deck</text>
<rect x="644" y="1294" width="515" height="48" rx="14" fill="#FDEAF3" stroke="#DB2777" stroke-opacity=".16"/>
<circle cx="664" cy="1312" r="5" fill="#DB2777"/>
<text x="678" y="1316" class="skill-title"><title>Pptx Posters</title>Pptx Posters</text>
<text x="678" y="1334" class="skill-id">pptx-posters</text>
<rect x="1183" y="1170" width="515" height="48" rx="14" fill="#FDEAF3" stroke="#DB2777" stroke-opacity=".16"/>
<circle cx="1203" cy="1188" r="5" fill="#DB2777"/>
<text x="1217" y="1192" class="skill-title"><title>Scientific Schematics</title>Scientific Schematics</text>
<text x="1217" y="1210" class="skill-id">scientific-schematics</text>
<rect x="1183" y="1232" width="515" height="48" rx="14" fill="#FDEAF3" stroke="#DB2777" stroke-opacity=".16"/>
<circle cx="1203" cy="1250" r="5" fill="#DB2777"/>
<text x="1217" y="1254" class="skill-title"><title>Scientific Slides</title>Scientific Slides</text>
<text x="1217" y="1272" class="skill-id">scientific-slides</text>
<rect x="1183" y="1294" width="515" height="48" rx="14" fill="#FDEAF3" stroke="#DB2777" stroke-opacity=".16"/>
<circle cx="1203" cy="1312" r="5" fill="#DB2777"/>
<text x="1217" y="1316" class="skill-title"><title>Scientific Visualization</title>Scientific Visualization</text>
<text x="1217" y="1334" class="skill-id">scientific-visualization</text>
<line x1="70" y1="1409" x2="1730" y2="1409" stroke="#CBD5E1"/>
<text x="70" y="1444" class="footer">← 实验、数据与智能计算</text>
<text x="900" y="1444" text-anchor="middle" class="footer">阶段 02 与 03 为并行专业研究分支</text>
<text x="1730" y="1444" text-anchor="end" class="footer">审稿反馈与新证据 →</text>
</svg>
